<svg width="52" height="52" viewBox="0 0 52 52" fill="none" xmlns="http://www.w3.org/2000/svg">
<circle cx="26" cy="26" r="26" fill="#979797"/>
<g clip-path="url(#clip0_359_326)">
<path d="M13.1631 35.4766C13.1631 33.7485 13.875 32.0913 15.1422 30.8693C16.4093 29.6474 18.128 28.9609 19.9201 28.9609H33.434C35.2261 28.9609 36.9447 29.6474 38.2119 30.8693C39.4791 32.0913 40.191 33.7485 40.191 35.4766C40.191 36.3406 39.8351 37.1693 39.2015 37.7802C38.5679 38.3912 37.7085 38.7344 36.8125 38.7344H16.5416C15.6455 38.7344 14.7862 38.3912 14.1526 37.7802C13.519 37.1693 13.1631 36.3406 13.1631 35.4766Z" stroke="black" stroke-width="2.16667" stroke-linejoin="round"/>
<path d="M26.6771 22.4451C29.4759 22.4451 31.7448 20.2572 31.7448 17.5584C31.7448 14.8595 29.4759 12.6716 26.6771 12.6716C23.8783 12.6716 21.6094 14.8595 21.6094 17.5584C21.6094 20.2572 23.8783 22.4451 26.6771 22.4451Z" stroke="black" stroke-width="2.16667"/>
</g>
<defs>
<clipPath id="clip0_359_326">
<rect width="30.9787" height="29.8723" fill="white" transform="translate(11.064 11.0637)"/>
</clipPath>
</defs>
</svg>
