<svg width="20" height="20" viewBox="0 0 20 20" fill="none" xmlns="http://www.w3.org/2000/svg">
<path d="M10.178 6.39222L11.1435 7.43111L10.5338 8.54333L10.5377 10.0842H6.38268L6.27546 9.01638L5.98713 8.41027L6.12852 7.63611L5.91602 5.80527L9.25824 3.09277L11.1535 3.97305L10.178 6.39222Z" fill="#9B9B9A"/>
<path d="M10.178 6.39219L11.1435 7.43108L10.5338 8.5433L10.5377 10.0841H13.2744L13.2313 9.10024L12.7791 7.91136L13.0063 6.83386L12.8066 4.70441L11.1535 3.97302L10.178 6.39219Z" fill="#3F3F3F"/>
<path d="M5.34937 16.2689C5.34937 13.7256 7.28937 11.7064 9.97909 11.6636C12.5102 11.6236 14.6019 13.3947 14.6088 16.2689H5.34937Z" fill="#EA5A47"/>
<path d="M9.05115 8.37585H7.62115L7.47754 6.73474H8.90754L9.05115 8.37585Z" fill="white"/>
<path d="M8.26107 16.1005C8.26107 15.6448 8.44211 15.2077 8.76436 14.8855C9.08661 14.5632 9.52367 14.3822 9.9794 14.3822C10.4351 14.3822 10.8722 14.5632 11.1944 14.8855C11.5167 15.2077 11.6977 15.6448 11.6977 16.1005M15.1633 12.1605C16.0577 13.0197 16.64 14.5544 16.64 15.9502M3.31885 15.95C3.37066 14.5407 3.92659 13.1968 4.88551 12.1627M12.8069 4.70441L13.0066 6.83385L12.7794 7.91135L13.2316 9.10024L13.2747 10.0841M6.36135 9.86968L6.27579 9.01635L5.98746 8.41024L6.12885 7.63607L5.91635 5.80524" stroke="black" stroke-width="0.361111" stroke-linecap="round" stroke-linejoin="round"/>
<path d="M5.20654 6.38444L9.25849 3.09277L13.7907 5.15111" stroke="black" stroke-width="0.361111" stroke-linecap="round" stroke-linejoin="round"/>
<path d="M7.14405 4.77304L6.96655 3.44415" stroke="black" stroke-width="0.361111" stroke-miterlimit="10" stroke-linecap="round"/>
<path d="M7.47764 6.73468H8.90764L9.05125 8.37579M10.6013 5.34357L10.1782 6.39218L11.1438 7.42329L10.5363 8.54384L10.5382 10.0594M3.42236 10.0841H9.07653M11.9001 10.0841H16.5779M11.3829 11.8375C12.3113 12.0952 13.1295 12.6503 13.7122 13.4176C14.2949 14.1848 14.6099 15.122 14.609 16.0855M5.34959 16.0855C5.34959 14.0552 6.90792 12.1308 9.16792 11.7391" stroke="black" stroke-width="0.361111" stroke-linecap="round" stroke-linejoin="round"/>
</svg>
