<svg width="36" height="36" viewBox="0 0 36 36" fill="none" xmlns="http://www.w3.org/2000/svg">
<path d="M28.5 10.5V7.5H25.5V4.5H28.5V1.5H31.5V4.5H34.5V7.5H31.5V10.5H28.5ZM16.5 26.25C18.375 26.25 19.969 25.5935 21.282 24.2805C22.595 22.9675 23.251 21.374 23.25 19.5C23.25 17.625 22.5935 16.031 21.2805 14.718C19.9675 13.405 18.374 12.749 16.5 12.75C14.625 12.75 13.031 13.4065 11.718 14.7195C10.405 16.0325 9.749 17.626 9.75 19.5C9.75 21.375 10.4065 22.969 11.7195 24.282C13.0325 25.595 14.626 26.251 16.5 26.25ZM16.5 23.25C15.45 23.25 14.5625 22.8875 13.8375 22.1625C13.1125 21.4375 12.75 20.55 12.75 19.5C12.75 18.45 13.1125 17.5625 13.8375 16.8375C14.5625 16.1125 15.45 15.75 16.5 15.75C17.55 15.75 18.4375 16.1125 19.1625 16.8375C19.8875 17.5625 20.25 18.45 20.25 19.5C20.25 20.55 19.8875 21.4375 19.1625 22.1625C18.4375 22.8875 17.55 23.25 16.5 23.25ZM4.5 31.5C3.675 31.5 2.9685 31.206 2.3805 30.618C1.7925 30.03 1.499 29.324 1.5 28.5V10.5C1.5 9.675 1.794 8.9685 2.382 8.3805C2.97 7.7925 3.676 7.499 4.5 7.5H9.225L12 4.5H22.5V10.5H25.5V13.5H31.5V28.5C31.5 29.325 31.206 30.0315 30.618 30.6195C30.03 31.2075 29.324 31.501 28.5 31.5H4.5Z" fill="#979797"/>
</svg>
