<svg width="24" height="24" viewBox="0 0 24 24" fill="none" xmlns="http://www.w3.org/2000/svg">
<g id="teenyicons:tick-circle-outline" clip-path="url(#clip0_287_3416)">
<path id="Vector" d="M6.3998 12L11.1998 16L17.5998 7.99999M11.9998 23.2C10.529 23.2 9.0726 22.9103 7.71375 22.3474C6.3549 21.7846 5.12022 20.9596 4.08021 19.9196C3.04019 18.8796 2.21521 17.6449 1.65235 16.286C1.0895 14.9272 0.799805 13.4708 0.799805 12C0.799805 10.5292 1.0895 9.07278 1.65235 7.71393C2.21521 6.35509 3.04019 5.12041 4.08021 4.08039C5.12022 3.04038 6.3549 2.21539 7.71375 1.65254C9.0726 1.08968 10.529 0.799988 11.9998 0.799988C14.9702 0.799988 17.819 1.97998 19.9194 4.08039C22.0198 6.1808 23.1998 9.02956 23.1998 12C23.1998 14.9704 22.0198 17.8192 19.9194 19.9196C17.819 22.02 14.9702 23.2 11.9998 23.2Z" stroke="white" stroke-width="2"/>
</g>
<defs>
<clipPath id="clip0_287_3416">
<rect width="24" height="24" fill="white"/>
</clipPath>
</defs>
</svg>
