<svg width="14" height="18" viewBox="0 0 14 18" fill="none" xmlns="http://www.w3.org/2000/svg">
<path d="M2.77052 5.46516C2.68571 6.36977 2.62619 7.9707 3.16033 8.65213C3.16033 8.65213 2.90889 6.89349 5.16298 4.68701C6.07057 3.79876 6.28036 2.59063 5.96345 1.68452C5.78342 1.17121 5.4546 0.747177 5.16893 0.451095C5.00229 0.277016 5.13025 -0.0101393 5.37277 0.000275634C6.83979 0.0657411 9.21738 0.473412 10.2276 3.00871C10.671 4.12162 10.7037 5.27173 10.4925 6.44119C10.3586 7.18809 9.88245 8.84853 10.9686 9.05237C11.7438 9.19817 12.1187 8.5822 12.2868 8.13883C12.3567 7.95433 12.5993 7.90821 12.7302 8.0555C14.0395 9.54484 14.1511 11.299 13.8803 12.8092C13.3566 15.7284 10.4002 17.853 7.4632 17.853C3.79416 17.853 0.873505 15.7536 0.116189 11.9537C-0.188821 10.4197 -0.034084 7.38448 2.3316 5.24198C2.50717 5.08129 2.79432 5.22412 2.77052 5.46516Z" fill="url(#paint0_radial_280_2232)"/>
<path d="M8.80365 10.9239C7.45119 9.18311 8.05675 7.19683 8.38854 6.40529C8.43317 6.30114 8.31415 6.20295 8.22041 6.26692C7.63866 6.66269 6.44689 7.59409 5.89192 8.90488C5.14056 10.6769 5.19412 11.5443 5.63899 12.6037C5.9068 13.242 5.59584 13.3774 5.43962 13.4012C5.28785 13.425 5.148 13.3238 5.03641 13.2182C4.71539 12.91 4.48662 12.5184 4.3758 12.0874C4.352 11.9952 4.23148 11.9699 4.17643 12.0457C3.75983 12.6215 3.54409 13.5455 3.53368 14.1987C3.50094 16.2177 5.16883 17.8543 7.18635 17.8543C9.72909 17.8543 11.5815 15.0423 10.1204 12.6915C9.69636 12.0071 9.29762 11.5592 8.80365 10.9239Z" fill="url(#paint1_radial_280_2232)"/>
<defs>
<radialGradient id="paint0_radial_280_2232" cx="0" cy="0" r="1" gradientUnits="userSpaceOnUse" gradientTransform="translate(6.7365 17.8993) rotate(-179.751) scale(10.5024 17.2323)">
<stop offset="0.314" stop-color="#FF9800"/>
<stop offset="0.662" stop-color="#FF6D00"/>
<stop offset="0.972" stop-color="#F44336"/>
</radialGradient>
<radialGradient id="paint1_radial_280_2232" cx="0" cy="0" r="1" gradientUnits="userSpaceOnUse" gradientTransform="translate(7.3262 7.44804) rotate(90.5787) scale(10.9887 8.26985)">
<stop offset="0.214" stop-color="#FFF176"/>
<stop offset="0.328" stop-color="#FFF27D"/>
<stop offset="0.487" stop-color="#FFF48F"/>
<stop offset="0.672" stop-color="#FFF7AD"/>
<stop offset="0.793" stop-color="#FFF9C4"/>
<stop offset="0.822" stop-color="#FFF8BD" stop-opacity="0.804"/>
<stop offset="0.863" stop-color="#FFF6AB" stop-opacity="0.529"/>
<stop offset="0.91" stop-color="#FFF38D" stop-opacity="0.209"/>
<stop offset="0.941" stop-color="#FFF176" stop-opacity="0"/>
</radialGradient>
</defs>
</svg>
