<svg width="24" height="32" viewBox="0 0 24 32" fill="none" xmlns="http://www.w3.org/2000/svg">
<g clip-path="url(#clip0_538_20)">
<path d="M6.99512 23.2788C7.96283 24.4258 8.84358 25.634 9.63099 26.8947C10.3033 28.0803 10.5836 28.8842 11.0749 30.3128C11.3762 31.1021 11.6485 31.3376 12.234 31.3376C12.8721 31.3376 13.1615 30.9369 13.3852 30.3171C13.8496 28.968 14.214 27.9384 14.7889 26.9656C15.9171 25.0873 17.319 23.4183 18.6964 21.8142C19.0693 21.3602 21.4802 18.7154 22.5656 16.6285C22.5656 16.6285 23.8997 14.336 23.8997 11.1344C23.8997 8.13957 22.584 6.0625 22.584 6.0625L18.7963 7.00594L16.496 12.6407L15.927 13.4177L15.8132 13.5584L15.6618 13.7346L15.3961 14.0161L15.0165 14.3691L12.9682 15.9212L7.84703 18.6713L6.99512 23.2788Z" fill="#34A853"/>
<path d="M1.70996 16.2432C2.95984 18.8984 5.37006 21.2325 7.00076 23.2808L15.6622 13.7384C15.6622 13.7384 14.4419 15.2227 12.2285 15.2227C9.7629 15.2227 7.77107 13.3915 7.77107 11.0825C7.77107 9.49914 8.79529 8.41138 8.79529 8.41138L2.91571 9.87665L1.70996 16.2432Z" fill="#FBBC04"/>
<path d="M15.7592 0.716393C18.6358 1.57902 21.098 3.39 22.5873 6.06047L15.6651 13.7326C15.6651 13.7326 16.6893 12.6252 16.6893 11.0516C16.6893 8.68888 14.5501 6.92377 12.2392 6.92377C10.0539 6.92377 8.79883 8.40558 8.79883 8.40558V3.57223L15.7592 0.716309V0.716393Z" fill="#4285F4"/>
<path d="M3.29639 4.1065C5.01452 2.19462 8.03778 0.22583 12.2058 0.22583C14.228 0.22583 15.7515 0.719595 15.7515 0.719595L8.79177 8.40997H3.86074L3.29639 4.1065Z" fill="#1A73E8"/>
<path d="M1.70943 16.243C1.70943 16.243 0.55957 14.1487 0.55957 11.1147C0.55957 8.24719 1.75812 5.74063 3.29609 4.10645L8.7954 8.41059L1.70943 16.243Z" fill="#EA4335"/>
</g>
<defs>
<clipPath id="clip0_538_20">
<rect width="23.34" height="31.12" fill="white" transform="translate(0.55957 0.22583)"/>
</clipPath>
</defs>
</svg>
