<svg width="19" height="19" viewBox="0 0 19 19" fill="none" xmlns="http://www.w3.org/2000/svg">
<g clip-path="url(#clip0_280_2251)">
<path d="M3.0949 8.89587L15.9615 8.9404V11.0452C15.9615 14.4608 13.3712 17.2277 10.1902 17.2277H8.80678C5.62725 17.2277 3.05037 14.4608 3.03553 11.0601L3.0949 8.89587ZM1.946 7.70392L1.85693 11.0452C1.85693 15.108 4.96373 18.4063 8.80529 18.4063H10.1887C14.0303 18.4063 17.1371 15.1095 17.1371 11.0452V7.76329L1.946 7.70392Z" fill="#784D30"/>
<path d="M10.6014 18.4063H8.36441C7.6727 18.4063 7.12793 17.8466 7.12793 17.1698V17.0807C7.12793 16.8299 7.31941 16.6384 7.57027 16.6384H11.3985C11.6493 16.6384 11.8408 16.8299 11.8408 17.0807V17.1698C11.8379 17.8466 11.2797 18.4063 10.6014 18.4063Z" fill="#B0805C"/>
<path d="M16.6413 9.35453C16.4246 9.26546 16.19 9.25953 15.9599 9.30851V11.0467C15.9599 11.7355 15.8531 12.3975 15.6586 13.018C15.7447 12.8814 15.8382 12.7463 15.9614 12.6424C16.242 12.4064 16.6724 12.3708 16.9886 12.5548C16.9901 12.5548 16.9901 12.5563 16.9916 12.5578C17.0881 12.0709 17.1385 11.5662 17.1385 11.0482V9.77312C17.0094 9.59054 16.8476 9.43914 16.6413 9.35453ZM3.27447 12.7938C3.1188 12.229 3.03844 11.646 3.03549 11.0601L3.06369 10.0507C2.95088 9.78499 2.76979 9.52671 2.49221 9.46437C2.28588 9.41835 2.07213 9.49703 1.89697 9.61578L1.85986 11.0452C1.85986 11.4653 1.89549 11.878 1.95932 12.2787C2.4358 12.3055 2.90338 12.4895 3.27447 12.7938Z" fill="#4F3320"/>
<path d="M9.49857 7.32983C12.9824 7.32983 18.3158 9.0428 18.3158 9.0428C18.4004 9.34413 18.3306 9.78796 18.3306 9.78796C18.3306 11.1462 14.3762 12.2461 9.49857 12.2461C4.62091 12.2461 0.66654 11.1447 0.66654 9.78796C0.66654 9.78796 0.610134 9.54007 0.67693 9.07991C0.675446 9.07991 6.23592 7.32983 9.49857 7.32983Z" fill="#C62828"/>
<path d="M17.3687 8.15812C17.1891 5.88703 15.8888 2.16867 11.9715 1.05242V0.991562C11.9715 0.770391 11.7711 0.59375 11.5203 0.59375H7.47979C7.22893 0.59375 7.02854 0.770391 7.02854 0.991562V1.04945C3.1276 2.15234 1.81541 5.83359 1.63283 8.11211C1.40424 8.46242 0.666504 8.75187 0.666504 9.16602C0.666504 10.5242 4.62088 11.6241 9.49854 11.6241C14.3762 11.6241 18.3306 10.5227 18.3306 9.16602C18.3321 8.63313 17.5646 8.54703 17.3687 8.15812Z" fill="#F44336"/>
<path d="M5.8632 5.7653C6.28179 5.25022 6.75828 4.41748 6.93343 3.17358C7.02101 2.55756 7.02695 1.40123 7.02695 1.05092C6.5806 1.17623 6.14719 1.34373 5.73257 1.55115C5.8914 1.98014 6.09476 2.65405 6.06953 3.52834C6.04429 4.37147 5.81867 5.0899 5.59601 5.6035C5.52328 5.77123 5.74742 5.9078 5.8632 5.7653ZM13.1188 5.7653C13.2346 5.9078 13.4587 5.77123 13.386 5.6035C13.1634 5.0899 12.9377 4.37147 12.9125 3.52834C12.8873 2.64959 13.0921 1.97272 13.2509 1.54522C12.8531 1.34483 12.4197 1.17709 11.9491 1.04498C11.9343 1.39084 11.8942 2.56647 12.0471 3.17209C12.3677 4.44272 12.7002 5.2517 13.1188 5.7653Z" fill="#C62828"/>
<path d="M4.99337 4.68026C4.57684 5.01835 4.20122 5.40393 3.87415 5.82917C3.72126 6.02808 3.5565 6.42589 3.21806 6.35018C2.87962 6.27448 2.88853 5.95386 2.95681 5.64065C3.13494 4.83909 3.54759 4.00487 4.2304 3.53581C4.66681 3.23597 5.01712 3.24933 5.24275 3.56253C5.56634 4.01081 5.37486 4.37003 4.99337 4.68026ZM5.79642 10.027C7.02697 10.1621 6.8147 10.5376 5.61533 10.6207C4.41744 10.7024 2.27103 10.2957 1.79306 9.69893C1.55408 9.40206 1.9222 8.95675 2.45955 9.16753C3.53126 9.58909 3.55353 9.78058 5.79642 10.027Z" fill="#FF7555"/>
<path d="M11.9152 5.68813H10.5674C10.4412 5.68813 10.3403 5.58125 10.3403 5.44915V4.03305C10.3403 3.90094 10.2378 3.79407 10.1131 3.79407H8.88705C8.76088 3.79407 8.65994 3.90094 8.65994 4.03305V5.44915C8.65994 5.58125 8.55752 5.68813 8.43283 5.68813H7.08502C6.95885 5.68813 6.85791 5.79501 6.85791 5.92711V7.21407C6.85791 7.34618 6.96033 7.45305 7.08502 7.45305H8.43283C8.559 7.45305 8.65994 7.55993 8.65994 7.69204V9.10813C8.65994 9.24024 8.76236 9.34711 8.88705 9.34711H10.1131C10.2393 9.34711 10.3403 9.24024 10.3403 9.10813V7.69204C10.3403 7.55993 10.4427 7.45305 10.5674 7.45305H11.9152C12.0413 7.45305 12.1423 7.34618 12.1423 7.21407V5.92711C12.1423 5.79501 12.0413 5.68813 11.9152 5.68813Z" fill="#FAFAFA"/>
</g>
<defs>
<clipPath id="clip0_280_2251">
<rect width="19" height="19" fill="white"/>
</clipPath>
</defs>
</svg>
