<svg width="80" height="80" viewBox="0 0 80 80" fill="none" xmlns="http://www.w3.org/2000/svg">
<g clip-path="url(#clip0_287_3411)">
<path d="M40 0C32.0888 0 24.3552 2.34596 17.7772 6.74121C11.1992 11.1365 6.07234 17.3836 3.04484 24.6927C0.0173314 32.0017 -0.774802 40.0444 0.768607 47.8036C2.31202 55.5628 6.12165 62.6902 11.7157 68.2842C17.3098 73.8783 24.4372 77.688 32.1964 79.2314C39.9556 80.7748 47.9983 79.9827 55.3073 76.9552C62.6164 73.9277 68.8635 68.8008 73.2588 62.2228C77.654 55.6448 80 47.9112 80 40C80 34.7471 78.9654 29.5457 76.9552 24.6927C74.945 19.8396 71.9986 15.4301 68.2843 11.7157C64.5699 8.00138 60.1604 5.05501 55.3073 3.04482C50.4543 1.03463 45.2529 0 40 0ZM36.8 54.4C34.8223 55.8833 32 54.4721 32 52V28C32 25.5279 34.8223 24.1167 36.8 25.6L52.8 37.6C54.4 38.8 54.4 41.2 52.8 42.4L36.8 54.4Z" fill="white"/>
</g>
<defs>
<clipPath id="clip0_287_3411">
<rect width="80" height="80" rx="40" fill="white"/>
</clipPath>
</defs>
</svg>
