<svg width="34" height="34" viewBox="0 0 34 34" fill="none" xmlns="http://www.w3.org/2000/svg">
<path d="M15.7328 1.39009C15.3131 1.39139 14.8488 1.5797 14.4252 2.00209L6.94646 10.4615H1.30769C0.587154 10.4615 0 11.0487 0 11.7692V22.2308C0 22.9513 0.587154 23.5385 1.30769 23.5385H6.94777L14.3846 31.9574C15.6923 33.2651 17 32.5955 17 30.8132V2.98155C17 1.94716 16.4338 1.38355 15.7328 1.38747V1.39009ZM25.2136 4.00547C24.9355 4.05399 24.6805 4.19121 24.4869 4.39663C24.2932 4.60204 24.1712 4.86462 24.1391 5.14511C24.107 5.4256 24.1666 5.70894 24.3089 5.95278C24.4512 6.19663 24.6686 6.38787 24.9285 6.49793C26.874 7.47599 28.5085 8.97665 29.6488 10.8316C30.7892 12.6866 31.3902 14.8226 31.3846 17C31.3846 21.6083 28.7692 25.5654 24.9272 27.5021C24.7524 27.5629 24.5925 27.6602 24.458 27.7874C24.3236 27.9147 24.2177 28.069 24.1473 28.2403C24.077 28.4115 24.0438 28.5957 24.05 28.7807C24.0562 28.9658 24.1016 29.1474 24.1831 29.3135C24.2647 29.4797 24.3807 29.6266 24.5233 29.7447C24.6659 29.8627 24.832 29.9491 25.0105 29.9981C25.189 30.0472 25.3759 30.0577 25.5588 30.0292C25.7417 30.0006 25.9164 29.9335 26.0715 29.8324C30.77 27.4615 34 22.6074 34 17C34 11.3926 30.7687 6.53847 26.0715 4.16763C25.8477 4.04273 25.5921 3.98634 25.3365 4.00547C25.2956 4.00354 25.2546 4.00354 25.2136 4.00547ZM22.1078 9.07147C21.8263 9.09215 21.559 9.2034 21.3458 9.38859C21.1327 9.57378 20.9853 9.82297 20.9255 10.0989C20.8658 10.3748 20.897 10.6627 21.0144 10.9195C21.1318 11.1762 21.3291 11.3881 21.5769 11.5234C23.5947 12.7775 24.8462 14.7639 24.8462 17C24.8462 19.2519 23.5751 21.2644 21.5364 22.5172C21.3762 22.6007 21.2351 22.7165 21.1219 22.8574C21.0088 22.9982 20.926 23.1609 20.8789 23.3353C20.8317 23.5097 20.8212 23.6919 20.848 23.8706C20.8748 24.0492 20.9383 24.2204 21.0346 24.3732C21.1308 24.5261 21.2577 24.6574 21.4072 24.7588C21.5567 24.8602 21.7256 24.9295 21.9032 24.9624C22.0808 24.9953 22.2633 24.991 22.4392 24.9499C22.6151 24.9087 22.7806 24.8315 22.9252 24.7232C25.6321 23.0625 27.4615 20.2379 27.4615 17C27.4615 13.7818 25.6478 10.9415 22.9657 9.27678C22.7466 9.1368 22.4907 9.06532 22.2308 9.07147C22.1898 9.06954 22.1488 9.06954 22.1078 9.07147Z" fill="#F9FAFB"/>
</svg>
