<svg width="154" height="154" viewBox="0 0 154 154" fill="none" xmlns="http://www.w3.org/2000/svg">
<g clip-path="url(#clip0_287_4921)">
<path fill-rule="evenodd" clip-rule="evenodd" d="M0 77C0 56.5783 8.11248 36.9931 22.5528 22.5528C36.9931 8.11248 56.5783 0 77 0C97.4217 0 117.007 8.11248 131.447 22.5528C145.888 36.9931 154 56.5783 154 77C154 97.4217 145.888 117.007 131.447 131.447C117.007 145.888 97.4217 154 77 154C56.5783 154 36.9931 145.888 22.5528 131.447C8.11248 117.007 0 97.4217 0 77ZM72.6059 109.956L116.937 54.5365L108.929 48.1301L71.1275 95.3671L44.352 73.0576L37.7813 80.9424L72.6059 109.966V109.956Z" fill="#F9FAFB"/>
</g>
<defs>
<clipPath id="clip0_287_4921">
<rect width="154" height="154" fill="white"/>
</clipPath>
</defs>
</svg>
