<svg width="20" height="20" viewBox="0 0 20 20" fill="none" xmlns="http://www.w3.org/2000/svg">
<path d="M19.8032 16.725C16.8695 11.3657 13.9345 6.00628 11.0001 0.646905C10.9023 0.461428 10.7557 0.306175 10.5761 0.197878C10.3965 0.0895814 10.1908 0.0323486 9.98106 0.0323486C9.77135 0.0323486 9.56562 0.0895814 9.38604 0.197878C9.20646 0.306175 9.05985 0.461428 8.962 0.646905C6.02793 6.00628 3.09137 11.3657 0.158871 16.725C-0.295192 17.5528 0.283558 18.626 1.177 18.626H18.7864C19.2814 18.626 19.6139 18.3594 19.7873 17.9978C20.0054 17.6535 20.0639 17.1963 19.8045 16.7244" fill="#FFDD15"/>
<path d="M9.03657 10.7741L8.75876 6.62968C8.70688 5.82249 8.68188 5.24249 8.68188 4.89062C8.68188 4.41124 8.80688 4.03843 9.05751 3.76937C9.30907 3.50187 9.6397 3.36749 10.0497 3.36749C10.5444 3.36749 10.8766 3.53968 11.0428 3.88187C11.2106 4.22624 11.2956 4.72062 11.2956 5.36656C11.2956 5.74624 11.275 6.13312 11.2338 6.52531L10.8619 10.7906C10.8216 11.2987 10.7356 11.6881 10.6034 11.9591C10.4703 12.2312 10.2509 12.3656 9.94439 12.3656C9.63439 12.3656 9.41626 12.2347 9.29688 11.9728C9.17407 11.71 9.08813 11.3103 9.03657 10.7741ZM9.99657 16.4669C9.64501 16.4669 9.33845 16.3537 9.07563 16.1253C8.81282 15.8978 8.68188 15.5791 8.68188 15.1697C8.68188 14.8125 8.80688 14.5072 9.05751 14.2569C9.30907 14.005 9.61563 13.88 9.9797 13.88C10.3438 13.88 10.6525 14.005 10.91 14.2569C11.1647 14.5072 11.2956 14.8125 11.2956 15.1697C11.2956 15.5728 11.1647 15.8909 10.9063 16.1209C10.6578 16.3473 10.3327 16.471 9.99657 16.4669Z" fill="#1F2E35"/>
</svg>
