<svg width="18" height="18" viewBox="0 0 18 18" fill="none" xmlns="http://www.w3.org/2000/svg">
<path d="M10.2604 3.8755V2.604H3.58496V13.0535H14.415L14.823 9.781C13.2675 11.0375 11.8513 11.1685 10.3055 11.1685C8.04423 11.1685 6.14355 9.4445 6.14355 7.4635C6.14354 6.99068 6.25018 6.52251 6.45735 6.08592C6.66451 5.64932 6.96812 5.25292 7.3507 4.91949C7.73328 4.58605 8.1873 4.32217 8.68666 4.14301C9.18602 3.96384 9.72086 3.87293 10.2604 3.8755Z" fill="#4AB9FF"/>
<path d="M10.2604 3.8755V2.604H3.58496V13.0535H14.415L14.823 9.781C13.2675 11.0375 11.8513 11.1685 10.3055 11.1685C8.04423 11.1685 6.14355 9.4445 6.14355 7.4635C6.14354 6.99068 6.25018 6.52251 6.45735 6.08592C6.66451 5.64932 6.96812 5.25292 7.3507 4.91949C7.73328 4.58605 8.1873 4.32217 8.68666 4.14301C9.18602 3.96384 9.72086 3.87293 10.2604 3.8755Z" fill="url(#paint0_radial_280_2269)"/>
<path d="M10.2604 3.8755V2.604H3.58496V13.0535H14.415L14.823 9.781C13.2675 11.0375 11.8513 11.1685 10.3055 11.1685C8.04423 11.1685 6.14355 9.4445 6.14355 7.4635C6.14354 6.99068 6.25018 6.52251 6.45735 6.08592C6.66451 5.64932 6.96812 5.25292 7.3507 4.91949C7.73328 4.58605 8.1873 4.32217 8.68666 4.14301C9.18602 3.96384 9.72086 3.87293 10.2604 3.8755Z" fill="url(#paint1_radial_280_2269)"/>
<g filter="url(#filter0_ii_280_2269)">
<path d="M1.0144 7.238V14.657H16.9856V8.583C15.5659 9.043 14.6969 9.9145 13.6299 10.6755C12.6182 11.3965 11.3691 12.0205 9.57288 12.0205C7.14839 12.0205 4.32562 10.1095 4.32562 7.604C4.32562 4.5945 7.28248 3.3115 8.91041 3.3115C9.56547 3.3115 9.84506 3.434 9.9569 3.495L10.6473 4.32H13.0342V3.8435C12.6507 2.8955 11.0119 1 7.52841 1C4.32562 1 1.0144 3.8435 1.0144 7.238Z" fill="url(#paint2_linear_280_2269)"/>
</g>
<path d="M1.0144 7.238V14.657H16.9856V8.583C15.5659 9.043 14.6969 9.9145 13.6299 10.6755C12.6182 11.3965 11.3691 12.0205 9.57288 12.0205C7.14839 12.0205 4.32562 10.1095 4.32562 7.604C4.32562 4.5945 7.28248 3.3115 8.91041 3.3115C9.56547 3.3115 9.84506 3.434 9.9569 3.495L10.6473 4.32H13.0342V3.8435C12.6507 2.8955 11.0119 1 7.52841 1C4.32562 1 1.0144 3.8435 1.0144 7.238Z" fill="url(#paint3_linear_280_2269)"/>
<path d="M1.0144 7.238V14.657H16.9856V8.583C15.5659 9.043 14.6969 9.9145 13.6299 10.6755C12.6182 11.3965 11.3691 12.0205 9.57288 12.0205C7.14839 12.0205 4.32562 10.1095 4.32562 7.604C4.32562 4.5945 7.28248 3.3115 8.91041 3.3115C9.56547 3.3115 9.84506 3.434 9.9569 3.495L10.6473 4.32H13.0342V3.8435C12.6507 2.8955 11.0119 1 7.52841 1C4.32562 1 1.0144 3.8435 1.0144 7.238Z" fill="url(#paint4_linear_280_2269)"/>
<path d="M1.0144 7.238V14.657H16.9856V8.583C15.5659 9.043 14.6969 9.9145 13.6299 10.6755C12.6182 11.3965 11.3691 12.0205 9.57288 12.0205C7.14839 12.0205 4.32562 10.1095 4.32562 7.604C4.32562 4.5945 7.28248 3.3115 8.91041 3.3115C9.56547 3.3115 9.84506 3.434 9.9569 3.495L10.6473 4.32H13.0342V3.8435C12.6507 2.8955 11.0119 1 7.52841 1C4.32562 1 1.0144 3.8435 1.0144 7.238Z" fill="url(#paint5_radial_280_2269)"/>
<g filter="url(#filter1_f_280_2269)">
<path d="M5.25562 1.79202C9.2059 0.348021 11.894 2.39402 12.7442 3.59702L11.2395 3.91252C10.0367 1.34502 6.74888 1.42852 5.25562 1.79202Z" fill="url(#paint6_linear_280_2269)"/>
</g>
<path d="M15.5073 4.70898C15.8659 4.70898 16.1566 4.45423 16.1566 4.13998C16.1566 3.82573 15.8659 3.57098 15.5073 3.57098C15.1486 3.57098 14.8579 3.82573 14.8579 4.13998C14.8579 4.45423 15.1486 4.70898 15.5073 4.70898Z" fill="url(#paint7_radial_280_2269)"/>
<path d="M15.5073 4.70898C15.8659 4.70898 16.1566 4.45423 16.1566 4.13998C16.1566 3.82573 15.8659 3.57098 15.5073 3.57098C15.1486 3.57098 14.8579 3.82573 14.8579 4.13998C14.8579 4.45423 15.1486 4.70898 15.5073 4.70898Z" fill="url(#paint8_radial_280_2269)"/>
<path d="M15.5073 7.62799C15.8659 7.62799 16.1566 7.37324 16.1566 7.05899C16.1566 6.74474 15.8659 6.48999 15.5073 6.48999C15.1486 6.48999 14.8579 6.74474 14.8579 7.05899C14.8579 7.37324 15.1486 7.62799 15.5073 7.62799Z" fill="url(#paint9_radial_280_2269)"/>
<path d="M15.5073 7.62799C15.8659 7.62799 16.1566 7.37324 16.1566 7.05899C16.1566 6.74474 15.8659 6.48999 15.5073 6.48999C15.1486 6.48999 14.8579 6.74474 14.8579 7.05899C14.8579 7.37324 15.1486 7.62799 15.5073 7.62799Z" fill="url(#paint10_radial_280_2269)"/>
<g filter="url(#filter2_i_280_2269)">
<path d="M9.87078 7.2085C10.2294 7.2085 10.5201 6.95375 10.5201 6.6395C10.5201 6.32525 10.2294 6.0705 9.87078 6.0705C9.51216 6.0705 9.22144 6.32525 9.22144 6.6395C9.22144 6.95375 9.51216 7.2085 9.87078 7.2085Z" fill="url(#paint11_radial_280_2269)"/>
</g>
<path d="M11.5876 3.07098C11.9462 3.07098 12.2369 2.81623 12.2369 2.50198C12.2369 2.18773 11.9462 1.93298 11.5876 1.93298C11.229 1.93298 10.9382 2.18773 10.9382 2.50198C10.9382 2.81623 11.229 3.07098 11.5876 3.07098Z" fill="url(#paint12_radial_280_2269)"/>
<g filter="url(#filter3_i_280_2269)">
<path fill-rule="evenodd" clip-rule="evenodd" d="M9.23103 5.21C9.02865 5.41537 8.75943 5.56158 8.4595 5.62902C8.15957 5.69646 7.84327 5.6819 7.55305 5.58729C7.26283 5.49269 7.01258 5.32256 6.83587 5.09975C6.65916 4.87693 6.56445 4.61209 6.56445 4.34075C6.56445 4.06942 6.65916 3.80457 6.83587 3.58176C7.01258 3.35895 7.26283 3.18882 7.55305 3.09422C7.84327 2.99961 8.15957 2.98505 8.4595 3.05249C8.75943 3.11993 9.02865 3.26614 9.23103 3.4715C9.38301 3.31679 9.57364 3.19485 9.78811 3.11515C10.0026 3.03545 10.2351 3.00013 10.4677 3.01193C10.7003 3.02373 10.9266 3.08233 11.1291 3.18319C11.3317 3.28405 11.505 3.42446 11.6356 3.5935C11.818 3.35823 12.0817 3.18042 12.388 3.08615C12.6943 2.99189 13.0269 2.98616 13.3372 3.06979C13.6475 3.15342 13.919 3.32201 14.1118 3.55081C14.3047 3.77961 14.4088 4.05656 14.4088 4.341C14.4088 4.62545 14.3047 4.9024 14.1118 5.1312C13.919 5.36 13.6475 5.52859 13.3372 5.61222C13.0269 5.69585 12.6943 5.69012 12.388 5.59585C12.0817 5.50159 11.818 5.32377 11.6356 5.0885C11.5049 5.25752 11.3316 5.39788 11.129 5.4987C10.9265 5.59951 10.7001 5.65807 10.4676 5.66982C10.235 5.68157 10.0024 5.6462 9.788 5.56646C9.57356 5.48672 9.38297 5.36474 9.23103 5.21Z" fill="#A1E5FF"/>
<path fill-rule="evenodd" clip-rule="evenodd" d="M9.23103 5.21C9.02865 5.41537 8.75943 5.56158 8.4595 5.62902C8.15957 5.69646 7.84327 5.6819 7.55305 5.58729C7.26283 5.49269 7.01258 5.32256 6.83587 5.09975C6.65916 4.87693 6.56445 4.61209 6.56445 4.34075C6.56445 4.06942 6.65916 3.80457 6.83587 3.58176C7.01258 3.35895 7.26283 3.18882 7.55305 3.09422C7.84327 2.99961 8.15957 2.98505 8.4595 3.05249C8.75943 3.11993 9.02865 3.26614 9.23103 3.4715C9.38301 3.31679 9.57364 3.19485 9.78811 3.11515C10.0026 3.03545 10.2351 3.00013 10.4677 3.01193C10.7003 3.02373 10.9266 3.08233 11.1291 3.18319C11.3317 3.28405 11.505 3.42446 11.6356 3.5935C11.818 3.35823 12.0817 3.18042 12.388 3.08615C12.6943 2.99189 13.0269 2.98616 13.3372 3.06979C13.6475 3.15342 13.919 3.32201 14.1118 3.55081C14.3047 3.77961 14.4088 4.05656 14.4088 4.341C14.4088 4.62545 14.3047 4.9024 14.1118 5.1312C13.919 5.36 13.6475 5.52859 13.3372 5.61222C13.0269 5.69585 12.6943 5.69012 12.388 5.59585C12.0817 5.50159 11.818 5.32377 11.6356 5.0885C11.5049 5.25752 11.3316 5.39788 11.129 5.4987C10.9265 5.59951 10.7001 5.65807 10.4676 5.66982C10.235 5.68157 10.0024 5.6462 9.788 5.56646C9.57356 5.48672 9.38297 5.36474 9.23103 5.21Z" fill="url(#paint13_radial_280_2269)"/>
<path fill-rule="evenodd" clip-rule="evenodd" d="M9.23103 5.21C9.02865 5.41537 8.75943 5.56158 8.4595 5.62902C8.15957 5.69646 7.84327 5.6819 7.55305 5.58729C7.26283 5.49269 7.01258 5.32256 6.83587 5.09975C6.65916 4.87693 6.56445 4.61209 6.56445 4.34075C6.56445 4.06942 6.65916 3.80457 6.83587 3.58176C7.01258 3.35895 7.26283 3.18882 7.55305 3.09422C7.84327 2.99961 8.15957 2.98505 8.4595 3.05249C8.75943 3.11993 9.02865 3.26614 9.23103 3.4715C9.38301 3.31679 9.57364 3.19485 9.78811 3.11515C10.0026 3.03545 10.2351 3.00013 10.4677 3.01193C10.7003 3.02373 10.9266 3.08233 11.1291 3.18319C11.3317 3.28405 11.505 3.42446 11.6356 3.5935C11.818 3.35823 12.0817 3.18042 12.388 3.08615C12.6943 2.99189 13.0269 2.98616 13.3372 3.06979C13.6475 3.15342 13.919 3.32201 14.1118 3.55081C14.3047 3.77961 14.4088 4.05656 14.4088 4.341C14.4088 4.62545 14.3047 4.9024 14.1118 5.1312C13.919 5.36 13.6475 5.52859 13.3372 5.61222C13.0269 5.69585 12.6943 5.69012 12.388 5.59585C12.0817 5.50159 11.818 5.32377 11.6356 5.0885C11.5049 5.25752 11.3316 5.39788 11.129 5.4987C10.9265 5.59951 10.7001 5.65807 10.4676 5.66982C10.235 5.68157 10.0024 5.6462 9.788 5.56646C9.57356 5.48672 9.38297 5.36474 9.23103 5.21Z" fill="url(#paint14_radial_280_2269)"/>
<path fill-rule="evenodd" clip-rule="evenodd" d="M9.23103 5.21C9.02865 5.41537 8.75943 5.56158 8.4595 5.62902C8.15957 5.69646 7.84327 5.6819 7.55305 5.58729C7.26283 5.49269 7.01258 5.32256 6.83587 5.09975C6.65916 4.87693 6.56445 4.61209 6.56445 4.34075C6.56445 4.06942 6.65916 3.80457 6.83587 3.58176C7.01258 3.35895 7.26283 3.18882 7.55305 3.09422C7.84327 2.99961 8.15957 2.98505 8.4595 3.05249C8.75943 3.11993 9.02865 3.26614 9.23103 3.4715C9.38301 3.31679 9.57364 3.19485 9.78811 3.11515C10.0026 3.03545 10.2351 3.00013 10.4677 3.01193C10.7003 3.02373 10.9266 3.08233 11.1291 3.18319C11.3317 3.28405 11.505 3.42446 11.6356 3.5935C11.818 3.35823 12.0817 3.18042 12.388 3.08615C12.6943 2.99189 13.0269 2.98616 13.3372 3.06979C13.6475 3.15342 13.919 3.32201 14.1118 3.55081C14.3047 3.77961 14.4088 4.05656 14.4088 4.341C14.4088 4.62545 14.3047 4.9024 14.1118 5.1312C13.919 5.36 13.6475 5.52859 13.3372 5.61222C13.0269 5.69585 12.6943 5.69012 12.388 5.59585C12.0817 5.50159 11.818 5.32377 11.6356 5.0885C11.5049 5.25752 11.3316 5.39788 11.129 5.4987C10.9265 5.59951 10.7001 5.65807 10.4676 5.66982C10.235 5.68157 10.0024 5.6462 9.788 5.56646C9.57356 5.48672 9.38297 5.36474 9.23103 5.21Z" fill="url(#paint15_radial_280_2269)"/>
<path fill-rule="evenodd" clip-rule="evenodd" d="M9.23103 5.21C9.02865 5.41537 8.75943 5.56158 8.4595 5.62902C8.15957 5.69646 7.84327 5.6819 7.55305 5.58729C7.26283 5.49269 7.01258 5.32256 6.83587 5.09975C6.65916 4.87693 6.56445 4.61209 6.56445 4.34075C6.56445 4.06942 6.65916 3.80457 6.83587 3.58176C7.01258 3.35895 7.26283 3.18882 7.55305 3.09422C7.84327 2.99961 8.15957 2.98505 8.4595 3.05249C8.75943 3.11993 9.02865 3.26614 9.23103 3.4715C9.38301 3.31679 9.57364 3.19485 9.78811 3.11515C10.0026 3.03545 10.2351 3.00013 10.4677 3.01193C10.7003 3.02373 10.9266 3.08233 11.1291 3.18319C11.3317 3.28405 11.505 3.42446 11.6356 3.5935C11.818 3.35823 12.0817 3.18042 12.388 3.08615C12.6943 2.99189 13.0269 2.98616 13.3372 3.06979C13.6475 3.15342 13.919 3.32201 14.1118 3.55081C14.3047 3.77961 14.4088 4.05656 14.4088 4.341C14.4088 4.62545 14.3047 4.9024 14.1118 5.1312C13.919 5.36 13.6475 5.52859 13.3372 5.61222C13.0269 5.69585 12.6943 5.69012 12.388 5.59585C12.0817 5.50159 11.818 5.32377 11.6356 5.0885C11.5049 5.25752 11.3316 5.39788 11.129 5.4987C10.9265 5.59951 10.7001 5.65807 10.4676 5.66982C10.235 5.68157 10.0024 5.6462 9.788 5.56646C9.57356 5.48672 9.38297 5.36474 9.23103 5.21Z" fill="url(#paint16_radial_280_2269)"/>
<path fill-rule="evenodd" clip-rule="evenodd" d="M9.23103 5.21C9.02865 5.41537 8.75943 5.56158 8.4595 5.62902C8.15957 5.69646 7.84327 5.6819 7.55305 5.58729C7.26283 5.49269 7.01258 5.32256 6.83587 5.09975C6.65916 4.87693 6.56445 4.61209 6.56445 4.34075C6.56445 4.06942 6.65916 3.80457 6.83587 3.58176C7.01258 3.35895 7.26283 3.18882 7.55305 3.09422C7.84327 2.99961 8.15957 2.98505 8.4595 3.05249C8.75943 3.11993 9.02865 3.26614 9.23103 3.4715C9.38301 3.31679 9.57364 3.19485 9.78811 3.11515C10.0026 3.03545 10.2351 3.00013 10.4677 3.01193C10.7003 3.02373 10.9266 3.08233 11.1291 3.18319C11.3317 3.28405 11.505 3.42446 11.6356 3.5935C11.818 3.35823 12.0817 3.18042 12.388 3.08615C12.6943 2.99189 13.0269 2.98616 13.3372 3.06979C13.6475 3.15342 13.919 3.32201 14.1118 3.55081C14.3047 3.77961 14.4088 4.05656 14.4088 4.341C14.4088 4.62545 14.3047 4.9024 14.1118 5.1312C13.919 5.36 13.6475 5.52859 13.3372 5.61222C13.0269 5.69585 12.6943 5.69012 12.388 5.59585C12.0817 5.50159 11.818 5.32377 11.6356 5.0885C11.5049 5.25752 11.3316 5.39788 11.129 5.4987C10.9265 5.59951 10.7001 5.65807 10.4676 5.66982C10.235 5.68157 10.0024 5.6462 9.788 5.56646C9.57356 5.48672 9.38297 5.36474 9.23103 5.21Z" fill="url(#paint17_radial_280_2269)"/>
<path fill-rule="evenodd" clip-rule="evenodd" d="M9.23103 5.21C9.02865 5.41537 8.75943 5.56158 8.4595 5.62902C8.15957 5.69646 7.84327 5.6819 7.55305 5.58729C7.26283 5.49269 7.01258 5.32256 6.83587 5.09975C6.65916 4.87693 6.56445 4.61209 6.56445 4.34075C6.56445 4.06942 6.65916 3.80457 6.83587 3.58176C7.01258 3.35895 7.26283 3.18882 7.55305 3.09422C7.84327 2.99961 8.15957 2.98505 8.4595 3.05249C8.75943 3.11993 9.02865 3.26614 9.23103 3.4715C9.38301 3.31679 9.57364 3.19485 9.78811 3.11515C10.0026 3.03545 10.2351 3.00013 10.4677 3.01193C10.7003 3.02373 10.9266 3.08233 11.1291 3.18319C11.3317 3.28405 11.505 3.42446 11.6356 3.5935C11.818 3.35823 12.0817 3.18042 12.388 3.08615C12.6943 2.99189 13.0269 2.98616 13.3372 3.06979C13.6475 3.15342 13.919 3.32201 14.1118 3.55081C14.3047 3.77961 14.4088 4.05656 14.4088 4.341C14.4088 4.62545 14.3047 4.9024 14.1118 5.1312C13.919 5.36 13.6475 5.52859 13.3372 5.61222C13.0269 5.69585 12.6943 5.69012 12.388 5.59585C12.0817 5.50159 11.818 5.32377 11.6356 5.0885C11.5049 5.25752 11.3316 5.39788 11.129 5.4987C10.9265 5.59951 10.7001 5.65807 10.4676 5.66982C10.235 5.68157 10.0024 5.6462 9.788 5.56646C9.57356 5.48672 9.38297 5.36474 9.23103 5.21Z" fill="url(#paint18_radial_280_2269)"/>
</g>
<path fill-rule="evenodd" clip-rule="evenodd" d="M9.23103 5.21C9.02865 5.41537 8.75943 5.56158 8.4595 5.62902C8.15957 5.69646 7.84327 5.6819 7.55305 5.58729C7.26283 5.49269 7.01258 5.32256 6.83587 5.09975C6.65916 4.87693 6.56445 4.61209 6.56445 4.34075C6.56445 4.06942 6.65916 3.80457 6.83587 3.58176C7.01258 3.35895 7.26283 3.18882 7.55305 3.09422C7.84327 2.99961 8.15957 2.98505 8.4595 3.05249C8.75943 3.11993 9.02865 3.26614 9.23103 3.4715C9.38301 3.31679 9.57364 3.19485 9.78811 3.11515C10.0026 3.03545 10.2351 3.00013 10.4677 3.01193C10.7003 3.02373 10.9266 3.08233 11.1291 3.18319C11.3317 3.28405 11.505 3.42446 11.6356 3.5935C11.818 3.35823 12.0817 3.18042 12.388 3.08615C12.6943 2.99189 13.0269 2.98616 13.3372 3.06979C13.6475 3.15342 13.919 3.32201 14.1118 3.55081C14.3047 3.77961 14.4088 4.05656 14.4088 4.341C14.4088 4.62545 14.3047 4.9024 14.1118 5.1312C13.919 5.36 13.6475 5.52859 13.3372 5.61222C13.0269 5.69585 12.6943 5.69012 12.388 5.59585C12.0817 5.50159 11.818 5.32377 11.6356 5.0885C11.5049 5.25752 11.3316 5.39788 11.129 5.4987C10.9265 5.59951 10.7001 5.65807 10.4676 5.66982C10.235 5.68157 10.0024 5.6462 9.788 5.56646C9.57356 5.48672 9.38297 5.36474 9.23103 5.21Z" fill="url(#paint19_radial_280_2269)"/>
<path d="M13.8508 6.16852C14.2094 6.16852 14.5001 5.91377 14.5001 5.59952C14.5001 5.28527 14.2094 5.03052 13.8508 5.03052C13.4921 5.03052 13.2014 5.28527 13.2014 5.59952C13.2014 5.91377 13.4921 6.16852 13.8508 6.16852Z" fill="url(#paint20_radial_280_2269)"/>
<defs>
<filter id="filter0_ii_280_2269" x="0.764404" y="1" width="16.7212" height="14.157" filterUnits="userSpaceOnUse" color-interpolation-filters="sRGB">
<feFlood flood-opacity="0" result="BackgroundImageFix"/>
<feBlend mode="normal" in="SourceGraphic" in2="BackgroundImageFix" result="shape"/>
<feColorMatrix in="SourceAlpha" type="matrix" values="0 0 0 0 0 0 0 0 0 0 0 0 0 0 0 0 0 0 127 0" result="hardAlpha"/>
<feOffset dx="-0.25" dy="0.5"/>
<feGaussianBlur stdDeviation="0.25"/>
<feComposite in2="hardAlpha" operator="arithmetic" k2="-1" k3="1"/>
<feColorMatrix type="matrix" values="0 0 0 0 0.309804 0 0 0 0 0.611765 0 0 0 0 0.996078 0 0 0 1 0"/>
<feBlend mode="normal" in2="shape" result="effect1_innerShadow_280_2269"/>
<feColorMatrix in="SourceAlpha" type="matrix" values="0 0 0 0 0 0 0 0 0 0 0 0 0 0 0 0 0 0 127 0" result="hardAlpha"/>
<feOffset dx="0.5" dy="0.25"/>
<feGaussianBlur stdDeviation="0.5"/>
<feComposite in2="hardAlpha" operator="arithmetic" k2="-1" k3="1"/>
<feColorMatrix type="matrix" values="0 0 0 0 0.180392 0 0 0 0 0.501961 0 0 0 0 0.882353 0 0 0 1 0"/>
<feBlend mode="normal" in2="effect1_innerShadow_280_2269" result="effect2_innerShadow_280_2269"/>
</filter>
<filter id="filter1_f_280_2269" x="4.00562" y="0.0454102" width="9.98853" height="5.11713" filterUnits="userSpaceOnUse" color-interpolation-filters="sRGB">
<feFlood flood-opacity="0" result="BackgroundImageFix"/>
<feBlend mode="normal" in="SourceGraphic" in2="BackgroundImageFix" result="shape"/>
<feGaussianBlur stdDeviation="0.625" result="effect1_foregroundBlur_280_2269"/>
</filter>
<filter id="filter2_i_280_2269" x="9.22144" y="5.9705" width="1.39858" height="1.238" filterUnits="userSpaceOnUse" color-interpolation-filters="sRGB">
<feFlood flood-opacity="0" result="BackgroundImageFix"/>
<feBlend mode="normal" in="SourceGraphic" in2="BackgroundImageFix" result="shape"/>
<feColorMatrix in="SourceAlpha" type="matrix" values="0 0 0 0 0 0 0 0 0 0 0 0 0 0 0 0 0 0 127 0" result="hardAlpha"/>
<feOffset dx="0.1" dy="-0.1"/>
<feGaussianBlur stdDeviation="0.25"/>
<feComposite in2="hardAlpha" operator="arithmetic" k2="-1" k3="1"/>
<feColorMatrix type="matrix" values="0 0 0 0 0.505882 0 0 0 0 0.745098 0 0 0 0 0.972549 0 0 0 1 0"/>
<feBlend mode="normal" in2="shape" result="effect1_innerShadow_280_2269"/>
</filter>
<filter id="filter3_i_280_2269" x="6.56445" y="2.7097" width="7.84424" height="2.96229" filterUnits="userSpaceOnUse" color-interpolation-filters="sRGB">
<feFlood flood-opacity="0" result="BackgroundImageFix"/>
<feBlend mode="normal" in="SourceGraphic" in2="BackgroundImageFix" result="shape"/>
<feColorMatrix in="SourceAlpha" type="matrix" values="0 0 0 0 0 0 0 0 0 0 0 0 0 0 0 0 0 0 127 0" result="hardAlpha"/>
<feOffset dy="-0.3"/>
<feGaussianBlur stdDeviation="0.625"/>
<feComposite in2="hardAlpha" operator="arithmetic" k2="-1" k3="1"/>
<feColorMatrix type="matrix" values="0 0 0 0 0.498039 0 0 0 0 0.741176 0 0 0 0 0.956863 0 0 0 1 0"/>
<feBlend mode="normal" in2="shape" result="effect1_innerShadow_280_2269"/>
</filter>
<radialGradient id="paint0_radial_280_2269" cx="0" cy="0" r="1" gradientUnits="userSpaceOnUse" gradientTransform="translate(6.47735 11.707) rotate(-39.8465) scale(4.07611 8.93853)">
<stop stop-color="#52C2FF"/>
<stop offset="1" stop-color="#52C2FF" stop-opacity="0"/>
</radialGradient>
<radialGradient id="paint1_radial_280_2269" cx="0" cy="0" r="1" gradientUnits="userSpaceOnUse" gradientTransform="translate(8.93714 7.36469) rotate(129.185) scale(4.42241 4.79805)">
<stop offset="0.813" stop-color="#5DC8FF" stop-opacity="0"/>
<stop offset="1" stop-color="#5DC8FF"/>
</radialGradient>
<linearGradient id="paint2_linear_280_2269" x1="9" y1="1" x2="9" y2="14.657" gradientUnits="userSpaceOnUse">
<stop stop-color="#52C3FB"/>
<stop offset="1" stop-color="#3E7FF0"/>
</linearGradient>
<linearGradient id="paint3_linear_280_2269" x1="9" y1="0.5715" x2="9" y2="7.219" gradientUnits="userSpaceOnUse">
<stop stop-color="#53C2F9"/>
<stop offset="1" stop-color="#53C2F9" stop-opacity="0"/>
</linearGradient>
<linearGradient id="paint4_linear_280_2269" x1="9.71896" y1="14.657" x2="9.71896" y2="14.2045" gradientUnits="userSpaceOnUse">
<stop stop-color="#2E6DEA"/>
<stop offset="1" stop-color="#2E6DEA" stop-opacity="0"/>
</linearGradient>
<radialGradient id="paint5_radial_280_2269" cx="0" cy="0" r="1" gradientUnits="userSpaceOnUse" gradientTransform="translate(7.68076 5.804) rotate(42.9668) scale(2.97094 3.99943)">
<stop offset="0.33" stop-color="#40A3EE"/>
<stop offset="1" stop-color="#40A3EE" stop-opacity="0"/>
</radialGradient>
<linearGradient id="paint6_linear_280_2269" x1="12.0247" y1="3.59752" x2="3.17424" y2="-0.235292" gradientUnits="userSpaceOnUse">
<stop stop-color="#74DEFF"/>
<stop offset="1" stop-color="#74DEFF" stop-opacity="0"/>
</linearGradient>
<radialGradient id="paint7_radial_280_2269" cx="0" cy="0" r="1" gradientUnits="userSpaceOnUse" gradientTransform="translate(15.8387 3.94243) rotate(146.761) scale(0.900654 0.860906)">
<stop stop-color="#BFF7FF"/>
<stop offset="1" stop-color="#8FD9FE"/>
</radialGradient>
<radialGradient id="paint8_radial_280_2269" cx="0" cy="0" r="1" gradientUnits="userSpaceOnUse" gradientTransform="translate(15.5073 3.98848) rotate(90) scale(0.72006 0.821738)">
<stop offset="0.738" stop-color="#85CCF6" stop-opacity="0"/>
<stop offset="1" stop-color="#85CCF6"/>
</radialGradient>
<radialGradient id="paint9_radial_280_2269" cx="0" cy="0" r="1" gradientUnits="userSpaceOnUse" gradientTransform="translate(15.8106 6.73823) rotate(139.654) scale(0.952375 0.940291)">
<stop stop-color="#BFF4FF"/>
<stop offset="1" stop-color="#90D0F8"/>
</radialGradient>
<radialGradient id="paint10_radial_280_2269" cx="0" cy="0" r="1" gradientUnits="userSpaceOnUse" gradientTransform="translate(15.7959 6.78029) rotate(128.584) scale(1.01631 1.05509)">
<stop offset="0.738" stop-color="#85CCF6" stop-opacity="0"/>
<stop offset="1" stop-color="#85CCF6"/>
</radialGradient>
<radialGradient id="paint11_radial_280_2269" cx="0" cy="0" r="1" gradientUnits="userSpaceOnUse" gradientTransform="translate(10.1726 6.541) rotate(147.641) scale(0.872255 1.03338)">
<stop stop-color="#A8DDFF"/>
<stop offset="1" stop-color="#8AC7FB"/>
</radialGradient>
<radialGradient id="paint12_radial_280_2269" cx="0" cy="0" r="1" gradientUnits="userSpaceOnUse" gradientTransform="translate(11.8195 2.32658) rotate(141.361) scale(0.826346 0.797628)">
<stop stop-color="#BBF7FF"/>
<stop offset="1" stop-color="#85DEFB"/>
</radialGradient>
<radialGradient id="paint13_radial_280_2269" cx="0" cy="0" r="1" gradientUnits="userSpaceOnUse" gradientTransform="translate(12.8361 4.341) rotate(180) scale(6.69928 4.17016)">
<stop offset="0.719" stop-color="#86CCEE" stop-opacity="0"/>
<stop offset="1" stop-color="#86CCEE"/>
</radialGradient>
<radialGradient id="paint14_radial_280_2269" cx="0" cy="0" r="1" gradientUnits="userSpaceOnUse" gradientTransform="translate(10.2176 7.55504) rotate(-103.496) scale(4.04932 2.14407)">
<stop stop-color="#86CCEE"/>
<stop offset="0.991" stop-color="#86CCEE" stop-opacity="0"/>
</radialGradient>
<radialGradient id="paint15_radial_280_2269" cx="0" cy="0" r="1" gradientUnits="userSpaceOnUse" gradientTransform="translate(13.3565 6.836) rotate(-113.947) scale(3.47061 1.79)">
<stop stop-color="#86CCEE"/>
<stop offset="0.991" stop-color="#86CCEE" stop-opacity="0"/>
</radialGradient>
<radialGradient id="paint16_radial_280_2269" cx="0" cy="0" r="1" gradientUnits="userSpaceOnUse" gradientTransform="translate(8.48069 3.9095) rotate(153.862) scale(1.42666 1.3082)">
<stop offset="0.194" stop-color="#BBF4FF"/>
<stop offset="1" stop-color="#BBF4FF" stop-opacity="0"/>
</radialGradient>
<radialGradient id="paint17_radial_280_2269" cx="0" cy="0" r="1" gradientUnits="userSpaceOnUse" gradientTransform="translate(11.0164 3.9545) rotate(162.899) scale(1.31321 1.16716)">
<stop offset="0.194" stop-color="#BBF4FF"/>
<stop offset="1" stop-color="#BBF4FF" stop-opacity="0"/>
</radialGradient>
<radialGradient id="paint18_radial_280_2269" cx="0" cy="0" r="1" gradientUnits="userSpaceOnUse" gradientTransform="translate(13.8341 3.629) rotate(155.155) scale(1.69367 1.57989)">
<stop stop-color="#BBF4FF"/>
<stop offset="1" stop-color="#BBF4FF" stop-opacity="0"/>
</radialGradient>
<radialGradient id="paint19_radial_280_2269" cx="0" cy="0" r="1" gradientUnits="userSpaceOnUse" gradientTransform="translate(14.4087 3.19548) rotate(144.491) scale(1.97145 2.05141)">
<stop stop-color="#C3FDFF"/>
<stop offset="1" stop-color="#C3FDFF" stop-opacity="0"/>
</radialGradient>
<radialGradient id="paint20_radial_280_2269" cx="0" cy="0" r="1" gradientUnits="userSpaceOnUse" gradientTransform="translate(14.2479 5.30452) rotate(135.745) scale(1.13158 1.35606)">
<stop offset="0.143" stop-color="#BDF3FF"/>
<stop offset="1" stop-color="#83C5F7"/>
</radialGradient>
</defs>
</svg>
